<svg width="141" height="49" viewBox="0 0 141 49" fill="none" xmlns="http://www.w3.org/2000/svg">
<rect x="52" width="89" height="49" fill="#F32929"/>
<path d="M17.8271 27.665C17.8271 30.3799 17.0947 32.499 15.6299 34.0225C14.1748 35.5361 12.1338 36.293 9.50684 36.293C6.9873 36.293 4.98047 35.5166 3.48633 33.9639C2.00195 32.4111 1.25977 30.3115 1.25977 27.665C1.25977 24.96 1.9873 22.8604 3.44238 21.3662C4.90723 19.8623 6.95801 19.1104 9.59473 19.1104C11.2256 19.1104 12.666 19.457 13.916 20.1504C15.166 20.8438 16.1279 21.8398 16.8018 23.1387C17.4854 24.4277 17.8271 25.9365 17.8271 27.665ZM7.0752 27.665C7.0752 29.0908 7.26562 30.1797 7.64648 30.9316C8.02734 31.6738 8.66699 32.0449 9.56543 32.0449C10.4541 32.0449 11.0791 31.6738 11.4404 30.9316C11.8115 30.1797 11.9971 29.0908 11.9971 27.665C11.9971 26.249 11.8115 25.1797 11.4404 24.457C11.0693 23.7344 10.4346 23.373 9.53613 23.373C8.65723 23.373 8.02734 23.7344 7.64648 24.457C7.26562 25.1699 7.0752 26.2393 7.0752 27.665ZM31.2451 23.6953H27.7148V36H21.9873V23.6953H19.79V20.8828L22.1045 19.4766V19.1982C22.1045 17.0107 22.5488 15.4385 23.4375 14.4814C24.3359 13.5244 25.7715 13.0459 27.7441 13.0459C28.5059 13.0459 29.2236 13.1045 29.8975 13.2217C30.5811 13.3389 31.3721 13.5439 32.2705 13.8369L31.04 17.543C30.3369 17.3477 29.6484 17.25 28.9746 17.25C28.5352 17.25 28.2129 17.3867 28.0078 17.6602C27.8125 17.9238 27.7148 18.3584 27.7148 18.9639V19.4033H31.2451V23.6953ZM43.6377 23.6953H40.1074V36H34.3799V23.6953H32.1826V20.8828L34.4971 19.4766V19.1982C34.4971 17.0107 34.9414 15.4385 35.8301 14.4814C36.7285 13.5244 38.1641 13.0459 40.1367 13.0459C40.8984 13.0459 41.6162 13.1045 42.29 13.2217C42.9736 13.3389 43.7646 13.5439 44.6631 13.8369L43.4326 17.543C42.7295 17.3477 42.041 17.25 41.3672 17.25C40.9277 17.25 40.6055 17.3867 40.4004 17.6602C40.2051 17.9238 40.1074 18.3584 40.1074 18.9639V19.4033H43.6377V23.6953Z" fill="#110202"/>
<path d="M70.1074 31.7666C70.8789 31.7666 71.8018 31.5762 72.876 31.1953V35.3701C72.1045 35.7021 71.3672 35.9365 70.6641 36.0732C69.9707 36.2197 69.1553 36.293 68.2178 36.293C66.2939 36.293 64.9072 35.8242 64.0576 34.8867C63.208 33.9395 62.7832 32.4893 62.7832 30.5361V23.6953H60.7764V21.3662L63.3252 19.5645L64.8047 16.0781H68.5547V19.4033H72.627V23.6953H68.5547V30.1553C68.5547 31.2295 69.0723 31.7666 70.1074 31.7666ZM87.5977 36L86.8799 33.9346H86.543C86.0645 34.6963 85.3955 35.2822 84.5361 35.6924C83.6865 36.0928 82.6855 36.293 81.5332 36.293C79.707 36.293 78.2861 35.7656 77.2705 34.7109C76.2549 33.6465 75.7471 32.1475 75.7471 30.2139V19.4033H81.4746V28.4707C81.4746 29.5547 81.626 30.375 81.9287 30.9316C82.2412 31.4883 82.749 31.7666 83.4521 31.7666C84.4385 31.7666 85.1416 31.3809 85.5615 30.6094C85.9814 29.8281 86.1914 28.5146 86.1914 26.6689V19.4033H91.9189V36H87.5977ZM106.011 19.1104C107.817 19.1104 109.248 19.8672 110.303 21.3809C111.367 22.8945 111.899 24.9893 111.899 27.665C111.899 30.3604 111.362 32.4746 110.288 34.0078C109.224 35.5312 107.739 36.293 105.835 36.293C105.22 36.293 104.673 36.2246 104.194 36.0879C103.716 35.9609 103.286 35.7803 102.905 35.5459C102.534 35.3115 102.1 34.9209 101.602 34.374H101.25L100.342 36H95.874V13.207H101.602V18.3633C101.602 18.9785 101.533 20.0381 101.396 21.542H101.602C102.158 20.6826 102.798 20.0625 103.521 19.6816C104.253 19.3008 105.083 19.1104 106.011 19.1104ZM103.916 23.6074C103.115 23.6074 102.529 23.8857 102.158 24.4424C101.787 24.999 101.602 25.873 101.602 27.0645V27.8701C101.602 29.2275 101.787 30.2041 102.158 30.7998C102.529 31.3857 103.135 31.6787 103.975 31.6787C104.648 31.6787 105.166 31.3369 105.527 30.6533C105.889 29.96 106.069 28.9443 106.069 27.6064C106.069 24.9404 105.352 23.6074 103.916 23.6074ZM123.193 36.293C120.43 36.293 118.281 35.5605 116.748 34.0957C115.225 32.6211 114.463 30.5264 114.463 27.8115C114.463 25.0088 115.171 22.8604 116.587 21.3662C118.003 19.8623 120.024 19.1104 122.651 19.1104C125.151 19.1104 127.08 19.7646 128.438 21.0732C129.805 22.3721 130.488 24.2471 130.488 26.6982V29.2471H120.249C120.288 30.1748 120.625 30.9023 121.26 31.4297C121.904 31.957 122.778 32.2207 123.882 32.2207C124.888 32.2207 125.811 32.1279 126.65 31.9424C127.5 31.7471 128.418 31.4199 129.404 30.9609V35.0771C128.506 35.5361 127.578 35.8535 126.621 36.0293C125.664 36.2051 124.521 36.293 123.193 36.293ZM122.856 23.0068C122.183 23.0068 121.616 23.2217 121.157 23.6514C120.708 24.0713 120.444 24.7354 120.366 25.6436H125.288C125.269 24.8428 125.039 24.2031 124.6 23.7246C124.17 23.2461 123.589 23.0068 122.856 23.0068Z" fill="white"/>
</svg>
